ply
format ascii 1.0
element vertex 12
property float x
property float y
property float z
element face 8
property list uchar int vertex_indices
end_header
6102.72 4389.37 8.16022
6102.72 4389.37 29.955
6079.89 4373.49 8.16022
6079.89 4373.49 29.955
6104.86 4336.64 8.16022
6104.86 4336.64 29.955
6116.88 4344.78 8.16022
6116.88 4344.78 29.955
6099.5 4370.41 8.16022
6099.5 4370.41 29.955
6110.65 4377.97 8.16022
6110.65 4377.97 29.955
4 1 0 2 3
4 3 2 4 5
4 5 4 6 7
4 7 6 8 9
4 9 8 10 11
4 11 10 0 1
6 10 8 6 4 2 0
6 1 3 5 7 9 11
